<?xml version="1.0" encoding="utf-8"?>
<!-- Generator: Adobe Illustrator 15.0.0, SVG Export Plug-In . SVG Version: 6.00 Build 0)  -->
<!DOCTYPE svg PUBLIC "-//W3C//DTD SVG 1.1//EN" "http://www.w3.org/Graphics/SVG/1.1/DTD/svg11.dtd">
<svg version="1.1" xmlns="http://www.w3.org/2000/svg" xmlns:xlink="http://www.w3.org/1999/xlink" x="0px" y="0px" width="200px"
	 height="200px" viewBox="0 0 200 200" enable-background="new 0 0 200 200" xml:space="preserve">
<g id="Layer_1" display="none">
</g>
<g id="Layer_2">
	<path fill="#E3A62F" stroke="#E3A62F" stroke-width="7" stroke-miterlimit="10" d="M100.472,62.572c0,0-7.114-20.062,14.484-20.062
		s14.794,20.062,14.794,20.062"/>
	<path fill="#F2D8C0" stroke="#D1AA90" stroke-width="5" stroke-miterlimit="10" d="M103.011,77.313c0,0-7.88-9.369-4.498-18.442
		c3.379-9.087,16.881-9.922,16.881-9.922s13.181-0.321,16.521,9.922c3.335,10.242-2.892,18.688-2.892,18.688"/>
	<path fill="#F2D8C0" stroke="#D1AA90" stroke-width="6" stroke-miterlimit="10" d="M140.099,89.226c0,0,3.727-1.183,6.818,1.671
		c3.084,2.854,3.56,8.238,0,11.091c-3.566,2.854-15.159,0-15.159,0L140.099,89.226z"/>
	<path fill="#F2D8C0" stroke="#D1AA90" stroke-width="6" stroke-miterlimit="10" d="M91.308,88.443c0,0-3.721-1.183-6.812,1.671
		c-3.084,2.854-3.56,8.239,0,11.079c3.566,2.854,15.153,0,15.153,0L91.308,88.443z"/>
	<path fill="#8ECA7B" stroke="#54945B" stroke-width="6" stroke-miterlimit="10" d="M98.28,75.154
		c-4.832,1.452-14.111,9.473-13.219,13.226c0.887,3.74,5.257,1.478,6.606,3.508c1.355,2.031,0.47,1.723,1.754,8.624
		c1.003,4.846,1.569,8.188,4.858,8.394c3.29,0.218,26.81,0,33.635,0c6.818,0,6.33-4.614,6.966-7.84
		c0.631-3.239-0.758-5.745,1.762-9.036c2.524-3.29,4.562,0.631,5.127-3.649c0.566-4.28-9.362-11.182-14.851-13.226
		C125.431,73.124,103.119,73.702,98.28,75.154z"/>
	<g>
		<path fill="#915C42" stroke="#915C42" stroke-width="9" stroke-miterlimit="10" d="M66.567,98.07c0,0-7.114-20.062,14.484-20.062
			c21.599,0,14.8,20.062,14.8,20.062"/>
		<path fill="#F3D2AE" stroke="#B78E6E" stroke-width="5" stroke-miterlimit="10" d="M69.106,112.824c0,0-7.878-9.368-4.499-18.442
			c3.38-9.087,16.888-9.935,16.888-9.935s13.175-0.309,16.516,9.935c3.335,10.229-2.892,18.675-2.892,18.675"/>
		<path fill="#F3D2AE" stroke="#B78E6E" stroke-width="6" stroke-miterlimit="10" d="M107.193,123.724c0,0,3.728-1.169,6.812,1.685
			c3.091,2.853,3.566,8.225,0,11.079c-3.561,2.852-15.153,0-15.153,0L107.193,123.724z"/>
		<path fill="#F3D2AE" stroke="#B78E6E" stroke-width="6" stroke-miterlimit="10" d="M57.404,123.954c0,0-3.721-1.182-6.812,1.672
			c-3.091,2.853-3.561,8.226,0,11.078c3.56,2.854,15.152,0,15.152,0L57.404,123.954z"/>
		<path fill="#74ABDB" stroke="#6076B7" stroke-width="7" stroke-miterlimit="10" d="M64.376,110.666
			c-4.839,1.452-14.112,9.472-13.219,13.226c0.887,3.739,5.257,1.465,6.606,3.508c1.356,2.018,0.469,1.71,1.754,8.624
			c1.003,4.845,1.568,8.174,4.859,8.393c3.29,0.205,26.809,0,33.634,0c6.818,0,6.336-4.614,6.966-7.853
			c0.629-3.226-0.759-5.732,1.761-9.023c2.525-3.289,4.562,0.618,5.128-3.648c0.565-4.28-9.363-11.195-14.851-13.226
			C91.526,108.622,69.215,109.214,64.376,110.666z"/>
	</g>
</g>
</svg>
